Crispy Wide Thin-MinGrade.ufo
<glyph name="asterisk" format="2">
  <advance width="930"/>
  <unicode hex="002A"/>
  <outline>
    <contour>
      <point x="170" y="806" type="line"/>
      <point x="466" y="1156" type="line"/>
      <point x="769" y="805" type="line"/>
      <point x="771" y="806" type="line"/>
      <point x="469" y="1157" type="line"/>
      <point x="932" y="1328" type="line"/>
      <point x="931" y="1330" type="line"/>
      <point x="468" y="1159" type="line"/>
      <point x="468" y="1600" type="line"/>
      <point x="465" y="1600" type="line"/>
      <point x="465" y="1159" type="line"/>
      <point x="0" y="1330" type="line"/>
      <point x="-1" y="1328" type="line"/>
      <point x="464" y="1157" type="line"/>
      <point x="168" y="808" type="line"/>
    </contour>
  </outline>
</glyph>
<glyph name="four" format="2">
  <advance width="3990"/>
  <unicode hex="0034"/>
  <outline>
    <contour>
      <point x="3433" y="0" type="line"/>
      <point x="3436" y="0" type="line"/>
      <point x="3436" y="799" type="line"/>
      <point x="3817" y="799" type="line"/>
      <point x="3817" y="801" type="line"/>
      <point x="3436" y="801" type="line"/>
      <point x="3436" y="1600" type="line"/>
      <point x="3433" y="1600" type="line"/>
      <point x="3433" y="801" type="line"/>
      <point x="304" y="801" type="line"/>
      <point x="304" y="1016" type="line"/>
      <point x="553" y="1600" type="line"/>
      <point x="550" y="1600" type="line"/>
      <point x="301" y="1016" type="line"/>
      <point x="301" y="799" type="line"/>
      <point x="3433" y="799" type="line"/>
    </contour>
  </outline>
</glyph>
<glyph name="A" format="2">
  <advance width="4553"/>
  <unicode hex="0041"/>
  <outline>
    <contour>
      <point x="3893" y="1600" type="line" smooth="yes"/>
      <point x="1133" y="1600" type="line" smooth="yes"/>
      <point x="282" y="0" type="line" smooth="yes"/>
      <point x="285" y="0" type="line" smooth="yes"/>
      <point x="1136" y="1597" type="line"/>
      <point x="3890" y="1597" type="line" smooth="yes"/>
      <point x="3890" y="0" type="line"/>
      <point x="3893" y="0" type="line" smooth="yes"/>
    </contour>
    <contour>
      <point x="708" y="798" type="line"/>
      <point x="3892" y="798" type="line"/>
      <point x="3892" y="800" type="line"/>
      <point x="708" y="800" type="line"/>
    </contour>
  </outline>
</glyph>
<glyph name="B" format="2">
  <advance width="4603"/>
  <unicode hex="0042"/>
  <outline>
    <contour>
      <point x="662" y="0" type="line"/>
      <point x="3712" y="0" type="line"/>
      <point x="4187" y="472" type="line"/>
      <point x="4187" y="801" type="line"/>
      <point x="3302" y="801" type="line"/>
      <point x="3631" y="1070" type="line"/>
      <point x="3631" y="1600" type="line"/>
      <point x="662" y="1600" type="line"/>
    </contour>
    <contour>
      <point x="665" y="3" type="line"/>
      <point x="665" y="799" type="line"/>
      <point x="4184" y="799" type="line"/>
      <point x="4184" y="473" type="line"/>
      <point x="3710" y="3" type="line"/>
    </contour>
    <contour>
      <point x="665" y="801" type="line"/>
      <point x="665" y="1597" type="line"/>
      <point x="3628" y="1597" type="line"/>
      <point x="3628" y="1071" type="line"/>
      <point x="3298" y="801" type="line"/>
    </contour>
  </outline>
</glyph>
<glyph name="S" format="2">
  <advance width="4059"/>
  <unicode hex="0053"/>
  <outline>
    <contour>
      <point x="466" y="0" type="line" identifier="09VlJ0BjUX"/>
      <point x="3121" y="0" type="line" identifier="EagWihqFM8"/>
      <point x="3596" y="472" type="line"/>
      <point x="3596" y="801" type="line" identifier="KfNuQA7eZe"/>
      <point x="467" y="801" type="line" identifier="At364YZFEy"/>
      <point x="467" y="1120" type="line"/>
      <point x="941" y="1597" type="line"/>
      <point x="3514" y="1597" type="line" identifier="3ZUkG35meB"/>
      <point x="3514" y="1160" type="line" identifier="DTOJhFIl15"/>
      <point x="3517" y="1160" type="line" identifier="9KDcrfQ5Ui"/>
      <point x="3517" y="1600" type="line" identifier="SaF9ojRFrW"/>
      <point x="940" y="1600" type="line"/>
      <point x="464" y="1120" type="line"/>
      <point x="464" y="799" type="line" identifier="3sQ8t8BZ6b"/>
      <point x="3593" y="799" type="line" identifier="yiV6OCBLHg"/>
      <point x="3593" y="472" type="line"/>
      <point x="3121" y="3" type="line" identifier="9kdl9SYsn8"/>
      <point x="469" y="3" type="line" identifier="yZDWuX8LLe"/>
      <point x="469" y="441" type="line" identifier="jYb9001DTm"/>
      <point x="466" y="441" type="line" identifier="ho4DrS0rdW"/>
    </contour>
  </outline>
</glyph>
<glyph name="W" format="2">
  <advance width="4524"/>
  <unicode hex="0057"/>
  <outline>
    <contour>
      <point x="1993" y="1600" type="line" identifier="0Dn4Xpf57M"/>
      <point x="1256" y="3" type="line"/>
      <point x="719" y="3" type="line"/>
      <point x="84" y="1600" type="line"/>
      <point x="81" y="1599" type="line"/>
      <point x="716" y="0" type="line"/>
      <point x="1258" y="0" type="line"/>
      <point x="1994" y="1597" type="line"/>
      <point x="2531" y="1597" type="line" identifier="9aKZPM0HPh"/>
      <point x="3269" y="0" type="line"/>
      <point x="3813" y="0" type="line"/>
      <point x="4444" y="1599" type="line"/>
      <point x="4441" y="1600" type="line"/>
      <point x="3810" y="3" type="line"/>
      <point x="3270" y="3" type="line"/>
      <point x="2533" y="1600" type="line" identifier="spdoeeCFft"/>
    </contour>
  </outline>
</glyph>
<glyph name="bracketleft" format="2">
  <advance width="2078"/>
  <unicode hex="005B"/>
  <outline>
    <contour>
      <point x="669" y="1791" type="line"/>
      <point x="1834" y="1791" type="line"/>
      <point x="1834" y="1793" type="line"/>
      <point x="666" y="1793" type="line"/>
      <point x="666" y="-193" type="line"/>
      <point x="1829" y="-193" type="line"/>
      <point x="1829" y="-191" type="line"/>
      <point x="669" y="-191" type="line"/>
    </contour>
  </outline>
</glyph>
<glyph name="braceleft" format="2">
  <advance width="1843"/>
  <unicode hex="007B"/>
  <outline>
    <contour>
      <point x="433" y="1225" type="line"/>
      <point x="433" y="1791" type="line"/>
      <point x="1598" y="1791" type="line"/>
      <point x="1598" y="1793" type="line"/>
      <point x="430" y="1793" type="line"/>
      <point x="430" y="1226" type="line"/>
      <point x="93" y="801" type="line"/>
      <point x="93" y="799" type="line"/>
      <point x="430" y="374" type="line"/>
      <point x="430" y="-193" type="line"/>
      <point x="1593" y="-193" type="line"/>
      <point x="1593" y="-191" type="line"/>
      <point x="433" y="-191" type="line"/>
      <point x="433" y="375" type="line"/>
      <point x="96" y="799" type="line"/>
      <point x="96" y="801" type="line"/>
    </contour>
  </outline>
</glyph>
<glyph name="bar" format="2">
  <advance width="1339"/>
  <unicode hex="007C"/>
  <outline>
    <contour>
      <point x="668" y="-195" type="line"/>
      <point x="671" y="-195" type="line"/>
      <point x="671" y="1795" type="line"/>
      <point x="668" y="1795" type="line"/>
    </contour>
  </outline>
</glyph>
<glyph name="E.wide" format="2">
  <advance width="4528"/>
  <outline>
    <contour>
      <point x="661" y="0" type="line" identifier="fZynkQ4XHB"/>
      <point x="4060" y="0" type="line" identifier="FAQNpgUPxV"/>
      <point x="4060" y="3" type="line" identifier="5cgTYOhATF"/>
      <point x="664" y="3" type="line" identifier="bWs42DaCgU"/>
      <point x="664" y="799" type="line" identifier="VtD2aADJmn"/>
      <point x="3392" y="799" type="line" identifier="PpbsFdHAnS"/>
      <point x="3392" y="801" type="line" identifier="8WuC5p8Ax5"/>
      <point x="664" y="801" type="line" identifier="m39IWn9ntA"/>
      <point x="664" y="1597" type="line" identifier="gQ21I4SHQg"/>
      <point x="4059" y="1597" type="line" identifier="eqNb2VTwYs"/>
      <point x="4059" y="1600" type="line" identifier="qYRmo14Il5"/>
      <point x="661" y="1600" type="line" identifier="HmJIcnLWfC"/>
    </contour>
  </outline>
</glyph>
<glyph name="F.wide" format="2">
  <advance width="4548"/>
  <outline>
    <contour>
      <point x="604" y="0" type="line" identifier="oAgH2tA6DJ"/>
      <point x="607" y="0" type="line" identifier="zCZyMcW5ho"/>
      <point x="607" y="799" type="line" identifier="yHYqkMd7LI"/>
      <point x="3658" y="799" type="line" identifier="NmB7yyQuio"/>
      <point x="3658" y="801" type="line" identifier="wQk2C8zPHh"/>
      <point x="607" y="801" type="line" identifier="4cFHKQfHDt"/>
      <point x="607" y="1597" type="line" identifier="ZvzwyrcwpS"/>
      <point x="4079" y="1597" type="line" identifier="4E754ovOIe"/>
      <point x="4079" y="1600" type="line" identifier="NUrIjqOB7J"/>
      <point x="604" y="1600" type="line" identifier="TBAYuCfUFX"/>
    </contour>
  </outline>
</glyph>
<glyph name="N.new" format="2">
  <advance width="4006"/>
  <outline>
    <contour>
      <point x="3301" y="0" type="line"/>
      <point x="3301" y="1600" type="line"/>
      <point x="3298" y="1600" type="line"/>
      <point x="3298" y="293" type="line"/>
      <point x="3297" y="293" type="line"/>
      <point x="917" y="1600" type="line"/>
      <point x="611" y="1600" type="line"/>
      <point x="608" y="1600" type="line"/>
      <point x="608" y="0" type="line"/>
      <point x="611" y="0" type="line"/>
      <point x="611" y="1597" type="line"/>
      <point x="917" y="1597" type="line"/>
      <point x="3298" y="289" type="line"/>
      <point x="3298" y="0" type="line"/>
    </contour>
  </outline>
</glyph>
<glyph name="N.wide" format="2">
  <advance width="4465"/>
  <outline>
    <contour>
      <point x="396" y="0" type="line" identifier="CkwYPPvJLv"/>
      <point x="399" y="0" type="line" identifier="oHTJsN7drZ"/>
      <point x="399" y="1597" type="line" identifier="wfBbYd10Pm"/>
      <point x="882" y="1597" type="line" identifier="MEnBDHq6zU"/>
      <point x="3477" y="0" type="line" identifier="3Nbopwznvn"/>
      <point x="3966" y="0" type="line" identifier="uKfuudIUvA"/>
      <point x="3966" y="1600" type="line" identifier="XRdLFXiM4t"/>
      <point x="3963" y="1600" type="line" identifier="MUSJPjCIXg"/>
      <point x="3963" y="3" type="line" identifier="VILP20cFmq"/>
      <point x="3478" y="3" type="line" identifier="z5b04GDwRN"/>
      <point x="882" y="1600" type="line" identifier="LL64NQ6WBE"/>
      <point x="396" y="1600" type="line" identifier="dzUaaP1sjt"/>
    </contour>
  </outline>
</glyph>
<glyph name="P.wide" format="2">
  <advance width="3898"/>
  <outline>
    <contour>
      <point x="332" y="0" type="line" identifier="EG08jqU5fb"/>
      <point x="335" y="0" type="line" identifier="osRzIFK2Cu"/>
      <point x="335" y="613" type="line" identifier="hIFVovVRwe"/>
      <point x="3633" y="613" type="line" identifier="Tt6D8zYZmU"/>
      <point x="3633" y="1600" type="line" identifier="6xW04auDFu"/>
      <point x="332" y="1600" type="line" identifier="eETO5GBD5v"/>
    </contour>
    <contour>
      <point x="335" y="616" type="line" identifier="PIBVN1PGv1"/>
      <point x="335" y="1597" type="line" identifier="IZIZQr2gYJ"/>
      <point x="3630" y="1597" type="line" identifier="2c4LCF1E1R"/>
      <point x="3630" y="616" type="line" identifier="1WCnzth1GX"/>
    </contour>
  </outline>
</glyph>
<glyph name="S.wide" format="2">
  <advance width="4373"/>
  <outline>
    <contour>
      <point x="464" y="0" type="line" identifier="09VlJ0BjUX"/>
      <point x="3437" y="0" type="line" identifier="EagWihqFM8"/>
      <point x="3912" y="472" type="line"/>
      <point x="3912" y="801" type="line" identifier="KfNuQA7eZe"/>
      <point x="465" y="801" type="line" identifier="At364YZFEy"/>
      <point x="465" y="1119" type="line"/>
      <point x="939" y="1597" type="line"/>
      <point x="3850" y="1597" type="line" identifier="3ZUkG35meB"/>
      <point x="3850" y="1600" type="line" identifier="SaF9ojRFrW"/>
      <point x="938" y="1600" type="line"/>
      <point x="462" y="1120" type="line"/>
      <point x="462" y="799" type="line" identifier="3sQ8t8BZ6b"/>
      <point x="3909" y="799" type="line" identifier="yiV6OCBLHg"/>
      <point x="3909" y="473" type="line"/>
      <point x="3436" y="3" type="line" identifier="9kdl9SYsn8"/>
      <point x="464" y="3" type="line" identifier="yZDWuX8LLe"/>
    </contour>
  </outline>
</glyph>
<glyph name="S.wideskinny" format="2">
  <advance width="4284"/>
  <outline>
    <contour>
      <point x="467" y="0" type="line" identifier="09VlJ0BjUX"/>
      <point x="3345" y="0" type="line" identifier="EagWihqFM8"/>
      <point x="3820" y="472" type="line"/>
      <point x="3820" y="801" type="line" identifier="KfNuQA7eZe"/>
      <point x="468" y="801" type="line" identifier="At364YZFEy"/>
      <point x="468" y="1119" type="line"/>
      <point x="943" y="1597" type="line"/>
      <point x="3806" y="1597" type="line" identifier="3ZUkG35meB"/>
      <point x="3806" y="1600" type="line" identifier="SaF9ojRFrW"/>
      <point x="941" y="1600" type="line"/>
      <point x="465" y="1120" type="line"/>
      <point x="465" y="799" type="line" identifier="3sQ8t8BZ6b"/>
      <point x="3817" y="799" type="line" identifier="yiV6OCBLHg"/>
      <point x="3817" y="473" type="line"/>
      <point x="3344" y="3" type="line" identifier="9kdl9SYsn8"/>
      <point x="467" y="3" type="line" identifier="yZDWuX8LLe"/>
    </contour>
  </outline>
</glyph>
<glyph name="U.alt" format="2">
  <advance width="4194"/>
  <outline>
    <contour>
      <point x="3861" y="1600" type="line" smooth="yes"/>
      <point x="3861" y="3" type="line"/>
      <point x="334" y="3" type="line" smooth="yes"/>
      <point x="334" y="1600" type="line"/>
      <point x="331" y="1600" type="line" smooth="yes"/>
      <point x="331" y="0" type="line" smooth="yes"/>
      <point x="3864" y="0" type="line" smooth="yes"/>
      <point x="3864" y="1600" type="line" smooth="yes"/>
    </contour>
  </outline>
</glyph>
<glyph name="Y.alt" format="2">
  <advance width="4301"/>
  <outline>
    <contour>
      <point x="1144" y="0" type="line" smooth="yes"/>
      <point x="3158" y="0" type="line" smooth="yes"/>
      <point x="4019" y="1599" type="line" smooth="yes"/>
      <point x="4016" y="1600" type="line" smooth="yes"/>
      <point x="3156" y="3" type="line"/>
      <point x="1146" y="3" type="line" smooth="yes"/>
      <point x="286" y="1600" type="line"/>
      <point x="283" y="1598" type="line" smooth="yes"/>
    </contour>
    <contour>
      <point x="3168" y="26" type="line"/>
      <point x="2948" y="-398" type="line"/>
      <point x="2951" y="-400" type="line"/>
      <point x="3168" y="20" type="line"/>
    </contour>
  </outline>
</glyph>
<glyph name="Z.wide" format="2">
  <advance width="4262"/>
  <outline>
    <contour>
      <point x="479" y="0" type="line"/>
      <point x="3799" y="0" type="line" identifier="pzdvPTirLJ"/>
      <point x="3799" y="3" type="line"/>
      <point x="482" y="3" type="line"/>
      <point x="482" y="453" type="line"/>
      <point x="3757" y="1146" type="line" identifier="yyb1NCCI5w"/>
      <point x="3757" y="1600" type="line" identifier="5FogYRSgkk"/>
      <point x="463" y="1600" type="line" identifier="svlFvrau4c"/>
      <point x="463" y="1597" type="line"/>
      <point x="3754" y="1597" type="line"/>
      <point x="3754" y="1148" type="line"/>
      <point x="479" y="456" type="line" identifier="teVKnpBcVb"/>
    </contour>
  </outline>
</glyph>
<glyph name="eight.skinnymiddle" format="2">
  <advance width="4849"/>
  <outline>
    <contour>
      <point x="3828" y="799" type="line"/>
      <point x="4193" y="524" type="line"/>
      <point x="4193" y="3" type="line"/>
      <point x="655" y="3" type="line"/>
      <point x="655" y="524" type="line"/>
      <point x="1022" y="799" type="line"/>
    </contour>
    <contour>
      <point x="3832" y="799" type="line"/>
      <point x="3832" y="801" type="line"/>
      <point x="4194" y="1061" type="line"/>
      <point x="4194" y="1600" type="line"/>
      <point x="656" y="1600" type="line"/>
      <point x="656" y="1061" type="line"/>
      <point x="1017" y="801" type="line"/>
      <point x="1017" y="799" type="line"/>
      <point x="653" y="525" type="line"/>
      <point x="653" y="0" type="line"/>
      <point x="4197" y="0" type="line"/>
      <point x="4197" y="525" type="line"/>
    </contour>
    <contour>
      <point x="1022" y="801" type="line"/>
      <point x="658" y="1062" type="line"/>
      <point x="658" y="1597" type="line"/>
      <point x="4190" y="1597" type="line"/>
      <point x="4190" y="1062" type="line"/>
      <point x="3828" y="801" type="line"/>
    </contour>
  </outline>
</glyph>
<glyph name="five.wide" format="2">
  <advance width="4372"/>
  <outline>
    <contour>
      <point x="462" y="0" type="line" identifier="09VlJ0BjUX"/>
      <point x="3911" y="0" type="line" identifier="EagWihqFM8"/>
      <point x="3911" y="801" type="line" identifier="KfNuQA7eZe"/>
      <point x="464" y="801" type="line" identifier="At364YZFEy"/>
      <point x="464" y="1597" type="line" identifier="BcuLfvaQKC"/>
      <point x="3910" y="1597" type="line" identifier="3ZUkG35meB"/>
      <point x="3910" y="1600" type="line" identifier="SaF9ojRFrW"/>
      <point x="461" y="1600" type="line" identifier="F4sQEYelA8"/>
      <point x="461" y="799" type="line" identifier="3sQ8t8BZ6b"/>
      <point x="3908" y="799" type="line" identifier="yiV6OCBLHg"/>
      <point x="3908" y="3" type="line" identifier="9kdl9SYsn8"/>
      <point x="462" y="3" type="line" identifier="yZDWuX8LLe"/>
    </contour>
  </outline>
</glyph>
<glyph name="five.wideskinny" format="2">
  <advance width="4756"/>
  <outline>
    <contour>
      <point x="654" y="0" type="line" identifier="09VlJ0BjUX"/>
      <point x="4104" y="0" type="line" identifier="EagWihqFM8"/>
      <point x="4104" y="801" type="line" identifier="KfNuQA7eZe"/>
      <point x="655" y="801" type="line" identifier="At364YZFEy"/>
      <point x="655" y="1597" type="line" identifier="BcuLfvaQKC"/>
      <point x="4103" y="1597" type="line" identifier="3ZUkG35meB"/>
      <point x="4103" y="1600" type="line" identifier="SaF9ojRFrW"/>
      <point x="653" y="1600" type="line" identifier="F4sQEYelA8"/>
      <point x="653" y="799" type="line" identifier="3sQ8t8BZ6b"/>
      <point x="4101" y="799" type="line" identifier="yiV6OCBLHg"/>
      <point x="4101" y="3" type="line" identifier="9kdl9SYsn8"/>
      <point x="654" y="3" type="line" identifier="yZDWuX8LLe"/>
    </contour>
  </outline>
</glyph>
<glyph name="one.narrow" format="2">
  <advance width="2849"/>
  <outline>
    <contour>
      <point x="2241" y="0" type="line" identifier="5nmxQXofSG"/>
      <point x="2241" y="1600" type="line" identifier="4rjIeWbSbx"/>
      <point x="466" y="1600" type="line"/>
      <point x="466" y="1597" type="line"/>
      <point x="2238" y="1597" type="line"/>
      <point x="2238" y="0" type="line"/>
    </contour>
  </outline>
</glyph>
<glyph name="six.wide" format="2">
  <advance width="4285"/>
  <outline>
    <contour>
      <point x="384" y="0" type="line" identifier="uiw6aBUf4P"/>
      <point x="3859" y="0" type="line" identifier="jtYkxiUX6G"/>
      <point x="3859" y="801" type="line" identifier="2G5L37c87I"/>
      <point x="387" y="801" type="line"/>
      <point x="387" y="1119" type="line"/>
      <point x="862" y="1597" type="line"/>
      <point x="3820" y="1597" type="line"/>
      <point x="3820" y="1600" type="line" identifier="oGvEEuxnYv"/>
      <point x="860" y="1600" type="line" identifier="xR3pEHbMJx"/>
      <point x="384" y="1121" type="line" identifier="KnMArb0tv8"/>
    </contour>
    <contour>
      <point x="3856" y="799" type="line"/>
      <point x="3856" y="3" type="line"/>
      <point x="387" y="3" type="line"/>
      <point x="387" y="799" type="line"/>
    </contour>
  </outline>
</glyph>
<glyph name="three.wide" format="2">
  <advance width="3916"/>
  <outline>
    <contour>
      <point x="93" y="0" type="line" identifier="O9abUc1nmN"/>
      <point x="3623" y="0" type="line" identifier="kMJYMTfXCq"/>
      <point x="3625" y="801" type="line" identifier="su2XmdS8e8"/>
      <point x="2995" y="801" type="line" identifier="JQaOzDQqlF"/>
      <point x="3311" y="1070" type="line"/>
      <point x="3311" y="1600" type="line" identifier="xg8x2Ki40p"/>
      <point x="269" y="1600" type="line" identifier="pE1XSRiy68"/>
      <point x="269" y="1597" type="line" identifier="7ogBYufWpl"/>
      <point x="3308" y="1597" type="line" identifier="RHLvSX2Jv6"/>
      <point x="3308" y="1070" type="line"/>
      <point x="2991" y="801" type="line" identifier="iic1IBkDqp"/>
      <point x="982" y="801" type="line" identifier="lRLJEhXMlO"/>
      <point x="982" y="799" type="line" identifier="8aKgEELrVU"/>
      <point x="3622" y="799" type="line" identifier="Dm8zjmbhNr"/>
      <point x="3621" y="3" type="line" identifier="xv9CFHiFgB"/>
      <point x="93" y="3" type="line" identifier="YajKQV3MHP"/>
    </contour>
  </outline>
</glyph>
<glyph name="two.wide" format="2">
  <advance width="4297"/>
  <outline>
    <contour>
      <point x="501" y="0" type="line"/>
      <point x="3816" y="0" type="line" identifier="pzdvPTirLJ"/>
      <point x="3816" y="3" type="line"/>
      <point x="504" y="3" type="line"/>
      <point x="504" y="799" type="line"/>
      <point x="3783" y="799" type="line" identifier="yyb1NCCI5w"/>
      <point x="3783" y="1600" type="line" identifier="5FogYRSgkk"/>
      <point x="504" y="1600" type="line" identifier="svlFvrau4c"/>
      <point x="504" y="1597" type="line"/>
      <point x="3780" y="1597" type="line"/>
      <point x="3780" y="801" type="line"/>
      <point x="501" y="801" type="line" identifier="teVKnpBcVb"/>
    </contour>
  </outline>
</glyph>
